<?xml version="1.0" encoding="UTF-8" standalone="no"?>
<svg
   xmlns:dc="http://purl.org/dc/elements/1.1/"
   xmlns:cc="http://creativecommons.org/ns#"
   xmlns:rdf="http://www.w3.org/1999/02/22-rdf-syntax-ns#"
   xmlns:svg="http://www.w3.org/2000/svg"
   xmlns="http://www.w3.org/2000/svg"
   xmlns:sodipodi="http://sodipodi.sourceforge.net/DTD/sodipodi-0.dtd"
   xmlns:inkscape="http://www.inkscape.org/namespaces/inkscape"
   version="1.1"
   width="24.5in"
   height="16.5in"
   viewBox=" 0 0 2205 1485"
   id="svg2"
   inkscape:version="0.91 r13725"
   sodipodi:docname="caseplans.svg">
  <metadata
     id="metadata32">
    <rdf:RDF>
      <cc:Work
         rdf:about="">
        <dc:format>image/svg+xml</dc:format>
        <dc:type
           rdf:resource="http://purl.org/dc/dcmitype/StillImage" />
      </cc:Work>
    </rdf:RDF>
  </metadata>
  <defs
     id="defs30" />
  <sodipodi:namedview
     pagecolor="#ffffff"
     bordercolor="#666666"
     borderopacity="1"
     objecttolerance="10"
     gridtolerance="10"
     guidetolerance="10"
     inkscape:pageopacity="0"
     inkscape:pageshadow="2"
     inkscape:window-width="1280"
     inkscape:window-height="756"
     id="namedview28"
     showgrid="false"
     inkscape:zoom="0.28117914"
     inkscape:cx="1622.5766"
     inkscape:cy="672.98341"
     inkscape:window-x="0"
     inkscape:window-y="0"
     inkscape:window-maximized="0"
     inkscape:current-layer="svg2" />
  <!-- Front-->
  <g
     transform="translate(22.5, 22.5) "
     id="g4"
     style="fill:none;stroke:#ff0000;stroke-opacity:1;stroke-width:0.125;stroke-miterlimit:4;stroke-dasharray:none">
    <polygon
       style="stroke:#ff0000;fill:none;stroke-width:0.125;stroke-opacity:1;stroke-miterlimit:4;stroke-dasharray:none"
       points="0, 0 56.25, 0 56.25, 21.24 112.5, 21.24 112.5, 0 157.5, 0 157.5, 21.24 202.5, 21.24 202.5, 0 247.5, 0 247.5, 21.24 292.5, 21.24 292.5, 0 337.5, 0 337.5, 21.24 382.5, 21.24 382.5, 0 427.5, 0 427.5, 21.24 472.5, 21.24 472.5, 0 517.5, 0 517.5, 21.24 562.5, 21.24 562.5, 0 607.5, 0 607.5, 21.24 663.75, 21.24 663.75, 0 720, 0 720, 56.25 698.76, 56.25 698.76, 112.5 720, 112.5 720, 157.5 698.76, 157.5 698.76, 202.5 720, 202.5 720, 247.5 698.76, 247.5 698.76, 292.5 720, 292.5 720, 337.5 698.76, 337.5 698.76, 382.5 720, 382.5 720, 427.5 698.76, 427.5 698.76, 472.5 720, 472.5 720, 517.5 698.76, 517.5 698.76, 562.5 720, 562.5 720, 607.5 698.76, 607.5 698.76, 663.75 720, 663.75 720, 720 663.75, 720 663.75, 698.76 607.5, 698.76 607.5, 720 562.5, 720 562.5, 698.76 517.5, 698.76 517.5, 720 472.5, 720 472.5, 698.76 427.5, 698.76 427.5, 720 382.5, 720 382.5, 698.76 337.5, 698.76 337.5, 720 292.5, 720 292.5, 698.76 247.5, 698.76 247.5, 720 202.5, 720 202.5, 698.76 157.5, 698.76 157.5, 720 112.5, 720 112.5, 698.76 56.25, 698.76 56.25, 720 0, 720 0, 663.75 21.24, 663.75 21.24, 607.5 0, 607.5 0, 562.5 21.24, 562.5 21.24, 517.5 0, 517.5 0, 472.5 21.24, 472.5 21.24, 427.5 0, 427.5 0, 382.5 21.24, 382.5 21.24, 337.5 0, 337.5 0, 292.5 21.24, 292.5 21.24, 247.5 0, 247.5 0, 202.5 21.24, 202.5 21.24, 157.5 0, 157.5 0, 112.5 21.24, 112.5 21.24, 56.25 0, 56.25 "
       id="polygon6" />
  </g>
  <!-- Back-->
  <g
     transform="translate(742.5, 22.5) "
     id="g8"
     style="fill:none;stroke:#ff0000;stroke-opacity:1;stroke-width:0.125;stroke-miterlimit:4;stroke-dasharray:none">
    <polygon
       style="stroke:#ff0000;fill:none;stroke-width:0.125;stroke-opacity:1;stroke-miterlimit:4;stroke-dasharray:none"
       points="0, 0 56.25, 0 56.25, 21.24 112.5, 21.24 112.5, 0 157.5, 0 157.5, 21.24 202.5, 21.24 202.5, 0 247.5, 0 247.5, 21.24 292.5, 21.24 292.5, 0 337.5, 0 337.5, 21.24 382.5, 21.24 382.5, 0 427.5, 0 427.5, 21.24 472.5, 21.24 472.5, 0 517.5, 0 517.5, 21.24 562.5, 21.24 562.5, 0 607.5, 0 607.5, 21.24 663.75, 21.24 663.75, 0 720, 0 720, 56.25 698.76, 56.25 698.76, 112.5 720, 112.5 720, 157.5 698.76, 157.5 698.76, 202.5 720, 202.5 720, 247.5 698.76, 247.5 698.76, 292.5 720, 292.5 720, 337.5 698.76, 337.5 698.76, 382.5 720, 382.5 720, 427.5 698.76, 427.5 698.76, 472.5 720, 472.5 720, 517.5 698.76, 517.5 698.76, 562.5 720, 562.5 720, 607.5 698.76, 607.5 698.76, 663.75 720, 663.75 720, 720 663.75, 720 663.75, 698.76 607.5, 698.76 607.5, 720 562.5, 720 562.5, 698.76 517.5, 698.76 517.5, 720 472.5, 720 472.5, 698.76 427.5, 698.76 427.5, 720 382.5, 720 382.5, 698.76 337.5, 698.76 337.5, 720 292.5, 720 292.5, 698.76 247.5, 698.76 247.5, 720 202.5, 720 202.5, 698.76 157.5, 698.76 157.5, 720 112.5, 720 112.5, 698.76 56.25, 698.76 56.25, 720 0, 720 0, 663.75 21.24, 663.75 21.24, 607.5 0, 607.5 0, 562.5 21.24, 562.5 21.24, 517.5 0, 517.5 0, 472.5 21.24, 472.5 21.24, 427.5 0, 427.5 0, 382.5 21.24, 382.5 21.24, 337.5 0, 337.5 0, 292.5 21.24, 292.5 21.24, 247.5 0, 247.5 0, 202.5 21.24, 202.5 21.24, 157.5 0, 157.5 0, 112.5 21.24, 112.5 21.24, 56.25 0, 56.25 "
       id="polygon10" />
  </g>
  <!-- Left-->
  <g
     transform="translate(1462.5, 22.5) "
     id="g12"
     style="fill:none;stroke:#ff0000;stroke-opacity:1;stroke-width:0.125;stroke-miterlimit:4;stroke-dasharray:none">
    <polygon
       style="stroke:#ff0000;fill:none;stroke-width:0.125;stroke-opacity:1;stroke-miterlimit:4;stroke-dasharray:none"
       points="21.24, 0 56.25, 0 56.25, 21.24 112.5, 21.24 112.5, 0 157.5, 0 157.5, 21.24 202.5, 21.24 202.5, 0 247.5, 0 247.5, 21.24 292.5, 21.24 292.5, 0 337.5, 0 337.5, 21.24 382.5, 21.24 382.5, 0 427.5, 0 427.5, 21.24 472.5, 21.24 472.5, 0 517.5, 0 517.5, 21.24 562.5, 21.24 562.5, 0 607.5, 0 607.5, 21.24 663.75, 21.24 663.75, 0 698.76, 0 698.76, 56.25 720, 56.25 720, 112.5 698.76, 112.5 698.76, 157.5 720, 157.5 720, 202.5 698.76, 202.5 698.76, 247.5 720, 247.5 720, 292.5 698.76, 292.5 698.76, 337.5 720, 337.5 720, 382.5 698.76, 382.5 698.76, 427.5 720, 427.5 720, 472.5 698.76, 472.5 698.76, 517.5 720, 517.5 720, 562.5 698.76, 562.5 698.76, 607.5 720, 607.5 720, 663.75 698.76, 663.75 698.76, 720 663.75, 720 663.75, 698.76 607.5, 698.76 607.5, 720 562.5, 720 562.5, 698.76 517.5, 698.76 517.5, 720 472.5, 720 472.5, 698.76 427.5, 698.76 427.5, 720 382.5, 720 382.5, 698.76 337.5, 698.76 337.5, 720 292.5, 720 292.5, 698.76 247.5, 698.76 247.5, 720 202.5, 720 202.5, 698.76 157.5, 698.76 157.5, 720 112.5, 720 112.5, 698.76 56.25, 698.76 56.25, 720 21.24, 720 21.24, 663.75 0, 663.75 0, 607.5 21.24, 607.5 21.24, 562.5 0, 562.5 0, 517.5 21.24, 517.5 21.24, 472.5 0, 472.5 0, 427.5 21.24, 427.5 21.24, 382.5 0, 382.5 0, 337.5 21.24, 337.5 21.24, 292.5 0, 292.5 0, 247.5 21.24, 247.5 21.24, 202.5 0, 202.5 0, 157.5 21.24, 157.5 21.24, 112.5 0, 112.5 0, 56.25 21.24, 56.25 "
       id="polygon14" />
  </g>
  <!-- Right-->
  <g
     transform="translate(1462.5, 742.5) "
     id="g16"
     style="fill:none;stroke:#ff0000;stroke-opacity:1;stroke-width:0.125;stroke-miterlimit:4;stroke-dasharray:none">
    <polygon
       style="stroke:#ff0000;fill:none;stroke-width:0.125;stroke-opacity:1;stroke-miterlimit:4;stroke-dasharray:none"
       points="21.24, 0 56.25, 0 56.25, 21.24 112.5, 21.24 112.5, 0 157.5, 0 157.5, 21.24 202.5, 21.24 202.5, 0 247.5, 0 247.5, 21.24 292.5, 21.24 292.5, 0 337.5, 0 337.5, 21.24 382.5, 21.24 382.5, 0 427.5, 0 427.5, 21.24 472.5, 21.24 472.5, 0 517.5, 0 517.5, 21.24 562.5, 21.24 562.5, 0 607.5, 0 607.5, 21.24 663.75, 21.24 663.75, 0 698.76, 0 698.76, 56.25 720, 56.25 720, 112.5 698.76, 112.5 698.76, 157.5 720, 157.5 720, 202.5 698.76, 202.5 698.76, 247.5 720, 247.5 720, 292.5 698.76, 292.5 698.76, 337.5 720, 337.5 720, 382.5 698.76, 382.5 698.76, 427.5 720, 427.5 720, 472.5 698.76, 472.5 698.76, 517.5 720, 517.5 720, 562.5 698.76, 562.5 698.76, 607.5 720, 607.5 720, 663.75 698.76, 663.75 698.76, 720 663.75, 720 663.75, 698.76 607.5, 698.76 607.5, 720 562.5, 720 562.5, 698.76 517.5, 698.76 517.5, 720 472.5, 720 472.5, 698.76 427.5, 698.76 427.5, 720 382.5, 720 382.5, 698.76 337.5, 698.76 337.5, 720 292.5, 720 292.5, 698.76 247.5, 698.76 247.5, 720 202.5, 720 202.5, 698.76 157.5, 698.76 157.5, 720 112.5, 720 112.5, 698.76 56.25, 698.76 56.25, 720 21.24, 720 21.24, 663.75 0, 663.75 0, 607.5 21.24, 607.5 21.24, 562.5 0, 562.5 0, 517.5 21.24, 517.5 21.24, 472.5 0, 472.5 0, 427.5 21.24, 427.5 21.24, 382.5 0, 382.5 0, 337.5 21.24, 337.5 21.24, 292.5 0, 292.5 0, 247.5 21.24, 247.5 21.24, 202.5 0, 202.5 0, 157.5 21.24, 157.5 21.24, 112.5 0, 112.5 0, 56.25 21.24, 56.25 "
       id="polygon18" />
  </g>
  <!-- Top-->
  <g
     transform="translate(22.5, 742.5) "
     id="g20"
     style="fill:none;stroke:#ff0000;stroke-opacity:1;stroke-width:0.125;stroke-miterlimit:4;stroke-dasharray:none">
    <polygon
       style="stroke:#ff0000;fill:none;stroke-width:0.125;stroke-opacity:1;stroke-miterlimit:4;stroke-dasharray:none"
       points="21.24, 21.24 56.25, 21.24 56.25, 0 112.5, 0 112.5, 21.24 157.5, 21.24 157.5, 0 202.5, 0 202.5, 21.24 247.5, 21.24 247.5, 0 292.5, 0 292.5, 21.24 337.5, 21.24 337.5, 0 382.5, 0 382.5, 21.24 427.5, 21.24 427.5, 0 472.5, 0 472.5, 21.24 517.5, 21.24 517.5, 0 562.5, 0 562.5, 21.24 607.5, 21.24 607.5, 0 663.75, 0 663.75, 21.24 698.76, 21.24 698.76, 56.25 720, 56.25 720, 112.5 698.76, 112.5 698.76, 157.5 720, 157.5 720, 202.5 698.76, 202.5 698.76, 247.5 720, 247.5 720, 292.5 698.76, 292.5 698.76, 337.5 720, 337.5 720, 382.5 698.76, 382.5 698.76, 427.5 720, 427.5 720, 472.5 698.76, 472.5 698.76, 517.5 720, 517.5 720, 562.5 698.76, 562.5 698.76, 607.5 720, 607.5 720, 663.75 698.76, 663.75 698.76, 698.76 663.75, 698.76 663.75, 720 607.5, 720 607.5, 698.76 562.5, 698.76 562.5, 720 517.5, 720 517.5, 698.76 472.5, 698.76 472.5, 720 427.5, 720 427.5, 698.76 382.5, 698.76 382.5, 720 337.5, 720 337.5, 698.76 292.5, 698.76 292.5, 720 247.5, 720 247.5, 698.76 202.5, 698.76 202.5, 720 157.5, 720 157.5, 698.76 112.5, 698.76 112.5, 720 56.25, 720 56.25, 698.76 21.24, 698.76 21.24, 663.75 0, 663.75 0, 607.5 21.24, 607.5 21.24, 562.5 0, 562.5 0, 517.5 21.24, 517.5 21.24, 472.5 0, 472.5 0, 427.5 21.24, 427.5 21.24, 382.5 0, 382.5 0, 337.5 21.24, 337.5 21.24, 292.5 0, 292.5 0, 247.5 21.24, 247.5 21.24, 202.5 0, 202.5 0, 157.5 21.24, 157.5 21.24, 112.5 0, 112.5 0, 56.25 21.24, 56.25 "
       id="polygon22" />
  </g>
  <!-- Bottom-->
  <g
     transform="translate(742.5, 742.5) "
     id="g24"
     style="fill:none;stroke:#ff0000;stroke-opacity:1;stroke-width:0.125;stroke-miterlimit:4;stroke-dasharray:none">
    <polygon
       style="stroke:#ff0000;fill:none;stroke-width:0.125;stroke-opacity:1;stroke-miterlimit:4;stroke-dasharray:none"
       points="21.24, 21.24 56.25, 21.24 56.25, 0 112.5, 0 112.5, 21.24 157.5, 21.24 157.5, 0 202.5, 0 202.5, 21.24 247.5, 21.24 247.5, 0 292.5, 0 292.5, 21.24 337.5, 21.24 337.5, 0 382.5, 0 382.5, 21.24 427.5, 21.24 427.5, 0 472.5, 0 472.5, 21.24 517.5, 21.24 517.5, 0 562.5, 0 562.5, 21.24 607.5, 21.24 607.5, 0 663.75, 0 663.75, 21.24 698.76, 21.24 698.76, 56.25 720, 56.25 720, 112.5 698.76, 112.5 698.76, 157.5 720, 157.5 720, 202.5 698.76, 202.5 698.76, 247.5 720, 247.5 720, 292.5 698.76, 292.5 698.76, 337.5 720, 337.5 720, 382.5 698.76, 382.5 698.76, 427.5 720, 427.5 720, 472.5 698.76, 472.5 698.76, 517.5 720, 517.5 720, 562.5 698.76, 562.5 698.76, 607.5 720, 607.5 720, 663.75 698.76, 663.75 698.76, 698.76 663.75, 698.76 663.75, 720 607.5, 720 607.5, 698.76 562.5, 698.76 562.5, 720 517.5, 720 517.5, 698.76 472.5, 698.76 472.5, 720 427.5, 720 427.5, 698.76 382.5, 698.76 382.5, 720 337.5, 720 337.5, 698.76 292.5, 698.76 292.5, 720 247.5, 720 247.5, 698.76 202.5, 698.76 202.5, 720 157.5, 720 157.5, 698.76 112.5, 698.76 112.5, 720 56.25, 720 56.25, 698.76 21.24, 698.76 21.24, 663.75 0, 663.75 0, 607.5 21.24, 607.5 21.24, 562.5 0, 562.5 0, 517.5 21.24, 517.5 21.24, 472.5 0, 472.5 0, 427.5 21.24, 427.5 21.24, 382.5 0, 382.5 0, 337.5 21.24, 337.5 21.24, 292.5 0, 292.5 0, 247.5 21.24, 247.5 21.24, 202.5 0, 202.5 0, 157.5 21.24, 157.5 21.24, 112.5 0, 112.5 0, 56.25 21.24, 56.25 "
       id="polygon26" />
  </g>
  <rect
     style="fill:none;fill-opacity:1;stroke:#ff0000;stroke-width:0.11111239;stroke-miterlimit:4;stroke-dasharray:none;stroke-opacity:1"
     id="rect4257"
     width="499.88889"
     height="34.786804"
     x="1572.5555"
     y="91.571579" />
  <rect
     style="fill:none;fill-opacity:1;stroke:#ff0000;stroke-width:0.09611377;stroke-miterlimit:4;stroke-dasharray:none;stroke-opacity:1"
     id="rect4259"
     width="499.9039"
     height="34.801777"
     x="1572.5481"
     y="159.26479" />
  <rect
     style="fill:none;fill-opacity:1;stroke:#ff0000;stroke-width:0.12340316;stroke-miterlimit:4;stroke-dasharray:none;stroke-opacity:1"
     id="rect4261"
     width="499.87656"
     height="34.774529"
     x="1572.5618"
     y="226.97908" />
  <rect
     style="fill:none;fill-opacity:1;stroke:#ff0000;stroke-width:0.11543188;stroke-miterlimit:4;stroke-dasharray:none;stroke-opacity:1"
     id="rect4263"
     width="499.88455"
     height="34.78249"
     x="1572.5577"
     y="294.67578" />
  <rect
     style="fill:none;fill-opacity:1;stroke:#ff0000;stroke-width:0.12773447;stroke-miterlimit:4;stroke-dasharray:none;stroke-opacity:1"
     id="rect4311"
     width="499.99725"
     height="36.548252"
     x="1572.5013"
     y="799.70056" />
  <rect
     style="fill:none;fill-opacity:1;stroke:#ff0000;stroke-width:0.12475882;stroke-miterlimit:4;stroke-dasharray:none;stroke-opacity:1"
     id="rect4313"
     width="500.00024"
     height="34.865047"
     x="1572.4999"
     y="867.93121" />
  <rect
     style="fill:none;fill-opacity:1;stroke:#ff0000;stroke-width:0.12475882;stroke-miterlimit:4;stroke-dasharray:none;stroke-opacity:1"
     id="rect4315"
     width="500.00024"
     height="34.865047"
     x="1572.4999"
     y="934.47717" />
  <rect
     style="fill:none;fill-opacity:1;stroke:#ff0000;stroke-width:0.12773447;stroke-miterlimit:4;stroke-dasharray:none;stroke-opacity:1"
     id="rect4317"
     width="499.99725"
     height="36.548252"
     x="1572.5013"
     y="1001.0246" />
</svg>
