<?xml version="1.0" encoding="UTF-8" standalone="no"?>
<svg
   xmlns:dc="http://purl.org/dc/elements/1.1/"
   xmlns:cc="http://creativecommons.org/ns#"
   xmlns:rdf="http://www.w3.org/1999/02/22-rdf-syntax-ns#"
   xmlns:svg="http://www.w3.org/2000/svg"
   xmlns="http://www.w3.org/2000/svg"
   xmlns:sodipodi="http://sodipodi.sourceforge.net/DTD/sodipodi-0.dtd"
   xmlns:inkscape="http://www.inkscape.org/namespaces/inkscape"
   version="1.1"
   width="25.915999999999997in"
   height="17.444in"
   viewBox=" 0 0 2332.4399999999996 1569.9599999999998"
   id="svg2"
   inkscape:version="0.91 r13725"
   sodipodi:docname="caseplans.svg">
  <metadata
     id="metadata32">
    <rdf:RDF>
      <cc:Work
         rdf:about="">
        <dc:format>image/svg+xml</dc:format>
        <dc:type
           rdf:resource="http://purl.org/dc/dcmitype/StillImage" />
      </cc:Work>
    </rdf:RDF>
  </metadata>
  <defs
     id="defs30" />
  <sodipodi:namedview
     pagecolor="#ffffff"
     bordercolor="#666666"
     borderopacity="1"
     objecttolerance="10"
     gridtolerance="10"
     guidetolerance="10"
     inkscape:pageopacity="0"
     inkscape:pageshadow="2"
     inkscape:window-width="1283"
     inkscape:window-height="764"
     id="namedview28"
     showgrid="false"
     inkscape:zoom="0.18796033"
     inkscape:cx="2076.3998"
     inkscape:cy="1120.0041"
     inkscape:window-x="0"
     inkscape:window-y="0"
     inkscape:window-maximized="0"
     inkscape:current-layer="svg2" />
  <!-- Front-->
  <g
     transform="translate(22.5, 22.5) "
     id="g4"
     style="fill:none;stroke:#ff0000;fill-opacity:1;stroke-opacity:1;stroke-width:0.125;stroke-miterlimit:4;stroke-dasharray:none">
    <polygon
       style="stroke:#ff0000;fill:none;stroke-width:0.125;fill-opacity:1;stroke-opacity:1;stroke-miterlimit:4;stroke-dasharray:none"
       points="0, 0 66.86999999999999, 0 66.86999999999999, 21.24 133.73999999999998, 21.24 133.73999999999998, 0 178.73999999999998, 0 178.73999999999998, 21.24 223.73999999999998, 21.24 223.73999999999998, 0 268.74, 0 268.74, 21.24 313.74, 21.24 313.74, 0 358.74, 0 358.74, 21.24 403.74, 21.24 403.74, 0 448.74, 0 448.74, 21.24 493.74, 21.24 493.74, 0 538.74, 0 538.74, 21.24 583.74, 21.24 583.74, 0 628.74, 0 628.74, 21.24 695.6099999999999, 21.24 695.6099999999999, 0 762.4799999999999, 0 762.4799999999999, 66.86999999999999 741.2399999999999, 66.86999999999999 741.2399999999999, 133.73999999999998 762.4799999999999, 133.73999999999998 762.4799999999999, 178.73999999999998 741.2399999999999, 178.73999999999998 741.2399999999999, 223.73999999999998 762.4799999999999, 223.73999999999998 762.4799999999999, 268.74 741.2399999999999, 268.74 741.2399999999999, 313.74 762.4799999999999, 313.74 762.4799999999999, 358.74 741.2399999999999, 358.74 741.2399999999999, 403.74 762.4799999999999, 403.74 762.4799999999999, 448.74 741.2399999999999, 448.74 741.2399999999999, 493.74 762.4799999999999, 493.74 762.4799999999999, 538.74 741.2399999999999, 538.74 741.2399999999999, 583.74 762.4799999999999, 583.74 762.4799999999999, 628.74 741.2399999999999, 628.74 741.2399999999999, 695.6099999999999 762.4799999999999, 695.6099999999999 762.48, 762.4799999999999 695.6099999999999, 762.4799999999999 695.6099999999999, 741.2399999999999 628.74, 741.2399999999999 628.74, 762.4799999999999 583.74, 762.4799999999999 583.74, 741.2399999999999 538.74, 741.2399999999999 538.74, 762.4799999999999 493.74, 762.4799999999999 493.74, 741.2399999999999 448.74, 741.2399999999999 448.74, 762.4799999999999 403.74, 762.4799999999999 403.74, 741.2399999999999 358.74, 741.2399999999999 358.74, 762.4799999999999 313.74, 762.4799999999999 313.74, 741.2399999999999 268.74, 741.2399999999999 268.74, 762.4799999999999 223.73999999999998, 762.4799999999999 223.73999999999998, 741.2399999999999 178.73999999999998, 741.2399999999999 178.73999999999998, 762.4799999999999 133.73999999999998, 762.4799999999999 133.73999999999998, 741.2399999999999 66.86999999999999, 741.2399999999999 66.86999999999999, 762.4799999999999 0, 762.48 0, 695.6099999999999 21.24, 695.6099999999999 21.24, 628.74 0, 628.74 0, 583.74 21.24, 583.74 21.24, 538.74 0, 538.74 0, 493.74 21.24, 493.74 21.24, 448.74 0, 448.74 0, 403.74 21.24, 403.74 21.24, 358.74 0, 358.74 0, 313.74 21.24, 313.74 21.24, 268.74 0, 268.74 0, 223.73999999999998 21.24, 223.73999999999998 21.24, 178.73999999999998 0, 178.73999999999998 0, 133.73999999999998 21.24, 133.73999999999998 21.24, 66.86999999999999 0, 66.86999999999999 "
       id="polygon6" />
  </g>
  <!-- Back-->
  <g
     transform="translate(784.9799999999999, 22.5) "
     id="g8"
     style="fill:none;stroke:#ff0000;fill-opacity:1;stroke-opacity:1;stroke-width:0.125;stroke-miterlimit:4;stroke-dasharray:none">
    <polygon
       style="stroke:#ff0000;fill:none;stroke-width:0.125;fill-opacity:1;stroke-opacity:1;stroke-miterlimit:4;stroke-dasharray:none"
       points="0, 0 66.86999999999999, 0 66.86999999999999, 21.24 133.73999999999998, 21.24 133.73999999999998, 0 178.73999999999998, 0 178.73999999999998, 21.24 223.73999999999998, 21.24 223.73999999999998, 0 268.74, 0 268.74, 21.24 313.74, 21.24 313.74, 0 358.74, 0 358.74, 21.24 403.74, 21.24 403.74, 0 448.74, 0 448.74, 21.24 493.74, 21.24 493.74, 0 538.74, 0 538.74, 21.24 583.74, 21.24 583.74, 0 628.74, 0 628.74, 21.24 695.6099999999999, 21.24 695.6099999999999, 0 762.4799999999999, 0 762.4799999999999, 66.86999999999999 741.2399999999999, 66.86999999999999 741.2399999999999, 133.73999999999998 762.4799999999999, 133.73999999999998 762.4799999999999, 178.73999999999998 741.2399999999999, 178.73999999999998 741.2399999999999, 223.73999999999998 762.4799999999999, 223.73999999999998 762.4799999999999, 268.74 741.2399999999999, 268.74 741.2399999999999, 313.74 762.4799999999999, 313.74 762.4799999999999, 358.74 741.2399999999999, 358.74 741.2399999999999, 403.74 762.4799999999999, 403.74 762.4799999999999, 448.74 741.2399999999999, 448.74 741.2399999999999, 493.74 762.4799999999999, 493.74 762.4799999999999, 538.74 741.2399999999999, 538.74 741.2399999999999, 583.74 762.4799999999999, 583.74 762.4799999999999, 628.74 741.2399999999999, 628.74 741.2399999999999, 695.6099999999999 762.4799999999999, 695.6099999999999 762.48, 762.4799999999999 695.6099999999999, 762.4799999999999 695.6099999999999, 741.2399999999999 628.74, 741.2399999999999 628.74, 762.4799999999999 583.74, 762.4799999999999 583.74, 741.2399999999999 538.74, 741.2399999999999 538.74, 762.4799999999999 493.74, 762.4799999999999 493.74, 741.2399999999999 448.74, 741.2399999999999 448.74, 762.4799999999999 403.74, 762.4799999999999 403.74, 741.2399999999999 358.74, 741.2399999999999 358.74, 762.4799999999999 313.74, 762.4799999999999 313.74, 741.2399999999999 268.74, 741.2399999999999 268.74, 762.4799999999999 223.73999999999998, 762.4799999999999 223.73999999999998, 741.2399999999999 178.73999999999998, 741.2399999999999 178.73999999999998, 762.4799999999999 133.73999999999998, 762.4799999999999 133.73999999999998, 741.2399999999999 66.86999999999999, 741.2399999999999 66.86999999999999, 762.4799999999999 0, 762.48 0, 695.6099999999999 21.24, 695.6099999999999 21.24, 628.74 0, 628.74 0, 583.74 21.24, 583.74 21.24, 538.74 0, 538.74 0, 493.74 21.24, 493.74 21.24, 448.74 0, 448.74 0, 403.74 21.24, 403.74 21.24, 358.74 0, 358.74 0, 313.74 21.24, 313.74 21.24, 268.74 0, 268.74 0, 223.73999999999998 21.24, 223.73999999999998 21.24, 178.73999999999998 0, 178.73999999999998 0, 133.73999999999998 21.24, 133.73999999999998 21.24, 66.86999999999999 0, 66.86999999999999 "
       id="polygon10" />
  </g>
  <!-- Left-->
  <g
     transform="translate(1547.46,22.499947)"
     id="g12"
     style="fill:none;stroke:#ff0000;fill-opacity:1;stroke-opacity:1;stroke-width:0.125;stroke-miterlimit:4;stroke-dasharray:none">
    <polygon
       style="fill:none;stroke:#ff0000;stroke-width:0.125;fill-opacity:1;stroke-opacity:1;stroke-miterlimit:4;stroke-dasharray:none"
       points="133.74,21.24 133.74,0 178.74,0 178.74,21.24 223.74,21.24 223.74,0 268.74,0 268.74,21.24 313.74,21.24 313.74,0 358.74,0 358.74,21.24 403.74,21.24 403.74,0 448.74,0 448.74,21.24 493.74,21.24 493.74,0 538.74,0 538.74,21.24 583.74,21.24 583.74,0 628.74,0 628.74,21.24 695.61,21.24 695.61,0 741.24,0 741.24,66.87 762.48,66.87 762.48,133.74 741.24,133.74 741.24,178.74 762.48,178.74 762.48,223.74 741.24,223.74 741.24,268.74 762.48,268.74 762.48,313.74 741.24,313.74 741.24,358.74 762.48,358.74 762.48,403.74 741.24,403.74 741.24,448.74 762.48,448.74 762.48,493.74 741.24,493.74 741.24,538.74 762.48,538.74 762.48,583.74 741.24,583.74 741.24,628.74 762.48,628.74 762.48,695.61 741.24,695.61 741.24,762.48 695.61,762.48 695.61,741.24 628.74,741.24 628.74,762.48 583.74,762.48 583.74,741.24 538.74,741.24 538.74,762.48 493.74,762.48 493.74,741.24 448.74,741.24 448.74,762.48 403.74,762.48 403.74,741.24 358.74,741.24 358.74,762.48 313.74,762.48 313.74,741.24 268.74,741.24 268.74,762.48 223.74,762.48 223.74,741.24 178.74,741.24 178.74,762.48 133.74,762.48 133.74,741.24 66.87,741.24 66.87,762.48 21.24,762.48 21.24,695.61 0,695.61 0,628.74 21.24,628.74 21.24,583.74 0,583.74 0,538.74 21.24,538.74 21.24,493.74 0,493.74 0,448.74 21.24,448.74 21.24,403.74 0,403.74 0,358.74 21.24,358.74 21.24,313.74 0,313.74 0,268.74 21.24,268.74 21.24,223.74 0,223.74 0,178.74 21.24,178.74 21.24,133.74 0,133.74 0,66.87 21.24,66.87 21.24,0 66.87,0 66.87,21.24 "
       id="polygon14" />
  </g>
  <!-- Right-->
  <g
     transform="translate(1547.4599999999998, 784.9799999999999) "
     id="g16"
     style="fill:none;stroke:#ff0000;fill-opacity:1;stroke-opacity:1;stroke-width:0.125;stroke-miterlimit:4;stroke-dasharray:none">
    <polygon
       style="stroke:#ff0000;fill:none;stroke-width:0.125;fill-opacity:1;stroke-opacity:1;stroke-miterlimit:4;stroke-dasharray:none"
       points="21.24, 0 66.86999999999999, 0 66.86999999999999, 21.24 133.73999999999998, 21.24 133.73999999999998, 0 178.73999999999998, 0 178.73999999999998, 21.24 223.73999999999998, 21.24 223.73999999999998, 0 268.74, 0 268.74, 21.24 313.74, 21.24 313.74, 0 358.74, 0 358.74, 21.24 403.74, 21.24 403.74, 0 448.74, 0 448.74, 21.24 493.74, 21.24 493.74, 0 538.74, 0 538.74, 21.24 583.74, 21.24 583.74, 0 628.74, 0 628.74, 21.24 695.6099999999999, 21.24 695.6099999999999, 0 741.2399999999999, 0 741.2399999999999, 66.86999999999999 762.4799999999999, 66.86999999999999 762.4799999999999, 133.73999999999998 741.2399999999999, 133.73999999999998 741.2399999999999, 178.73999999999998 762.4799999999999, 178.73999999999998 762.4799999999999, 223.73999999999998 741.2399999999999, 223.73999999999998 741.2399999999999, 268.74 762.4799999999999, 268.74 762.4799999999999, 313.74 741.2399999999999, 313.74 741.2399999999999, 358.74 762.4799999999999, 358.74 762.4799999999999, 403.74 741.2399999999999, 403.74 741.2399999999999, 448.74 762.4799999999999, 448.74 762.4799999999999, 493.74 741.2399999999999, 493.74 741.2399999999999, 538.74 762.4799999999999, 538.74 762.4799999999999, 583.74 741.2399999999999, 583.74 741.2399999999999, 628.74 762.4799999999999, 628.74 762.4799999999999, 695.6099999999999 741.2399999999999, 695.6099999999999 741.24, 762.4799999999999 695.6099999999999, 762.4799999999999 695.6099999999999, 741.2399999999999 628.74, 741.2399999999999 628.74, 762.4799999999999 583.74, 762.4799999999999 583.74, 741.2399999999999 538.74, 741.2399999999999 538.74, 762.4799999999999 493.74, 762.4799999999999 493.74, 741.2399999999999 448.74, 741.2399999999999 448.74, 762.4799999999999 403.74, 762.4799999999999 403.74, 741.2399999999999 358.74, 741.2399999999999 358.74, 762.4799999999999 313.74, 762.4799999999999 313.74, 741.2399999999999 268.74, 741.2399999999999 268.74, 762.4799999999999 223.73999999999998, 762.4799999999999 223.73999999999998, 741.2399999999999 178.73999999999998, 741.2399999999999 178.73999999999998, 762.4799999999999 133.73999999999998, 762.4799999999999 133.73999999999998, 741.2399999999999 66.86999999999999, 741.2399999999999 66.86999999999999, 762.4799999999999 21.24, 762.48 21.24, 695.6099999999999 0, 695.6099999999999 0, 628.74 21.24, 628.74 21.24, 583.74 0, 583.74 0, 538.74 21.24, 538.74 21.24, 493.74 0, 493.74 0, 448.74 21.24, 448.74 21.24, 403.74 0, 403.74 0, 358.74 21.24, 358.74 21.24, 313.74 0, 313.74 0, 268.74 21.24, 268.74 21.24, 223.73999999999998 0, 223.73999999999998 0, 178.73999999999998 21.24, 178.73999999999998 21.24, 133.73999999999998 0, 133.73999999999998 0, 66.86999999999999 21.24, 66.86999999999999 "
       id="polygon18" />
  </g>
  <!-- Top-->
  <g
     transform="translate(22.5, 784.9799999999999) "
     id="g20"
     style="fill:none;stroke:#ff0000;fill-opacity:1;stroke-opacity:1;stroke-width:0.125;stroke-miterlimit:4;stroke-dasharray:none">
    <polygon
       style="stroke:#ff0000;fill:none;stroke-width:0.125;fill-opacity:1;stroke-opacity:1;stroke-miterlimit:4;stroke-dasharray:none"
       points="21.24, 21.24 66.86999999999999, 21.24 66.86999999999999, 0 133.73999999999998, 0 133.73999999999998, 21.24 178.73999999999998, 21.24 178.73999999999998, 0 223.73999999999998, 0 223.73999999999998, 21.24 268.74, 21.24 268.74, 0 313.74, 0 313.74, 21.24 358.74, 21.24 358.74, 0 403.74, 0 403.74, 21.24 448.74, 21.24 448.74, 0 493.74, 0 493.74, 21.24 538.74, 21.24 538.74, 0 583.74, 0 583.74, 21.24 628.74, 21.24 628.74, 0 695.6099999999999, 0 695.6099999999999, 21.24 741.2399999999999, 21.24 741.2399999999999, 66.86999999999999 762.4799999999999, 66.86999999999999 762.4799999999999, 133.73999999999998 741.2399999999999, 133.73999999999998 741.2399999999999, 178.73999999999998 762.4799999999999, 178.73999999999998 762.4799999999999, 223.73999999999998 741.2399999999999, 223.73999999999998 741.2399999999999, 268.74 762.4799999999999, 268.74 762.4799999999999, 313.74 741.2399999999999, 313.74 741.2399999999999, 358.74 762.4799999999999, 358.74 762.4799999999999, 403.74 741.2399999999999, 403.74 741.2399999999999, 448.74 762.4799999999999, 448.74 762.4799999999999, 493.74 741.2399999999999, 493.74 741.2399999999999, 538.74 762.4799999999999, 538.74 762.4799999999999, 583.74 741.2399999999999, 583.74 741.2399999999999, 628.74 762.4799999999999, 628.74 762.4799999999999, 695.6099999999999 741.2399999999999, 695.6099999999999 741.24, 741.2399999999999 695.6099999999999, 741.2399999999999 695.6099999999999, 762.4799999999999 628.74, 762.4799999999999 628.74, 741.2399999999999 583.74, 741.2399999999999 583.74, 762.4799999999999 538.74, 762.4799999999999 538.74, 741.2399999999999 493.74, 741.2399999999999 493.74, 762.4799999999999 448.74, 762.4799999999999 448.74, 741.2399999999999 403.74, 741.2399999999999 403.74, 762.4799999999999 358.74, 762.4799999999999 358.74, 741.2399999999999 313.74, 741.2399999999999 313.74, 762.4799999999999 268.74, 762.4799999999999 268.74, 741.2399999999999 223.73999999999998, 741.2399999999999 223.73999999999998, 762.4799999999999 178.73999999999998, 762.4799999999999 178.73999999999998, 741.2399999999999 133.73999999999998, 741.2399999999999 133.73999999999998, 762.4799999999999 66.86999999999999, 762.4799999999999 66.86999999999999, 741.2399999999999 21.24, 741.24 21.24, 695.6099999999999 0, 695.6099999999999 0, 628.74 21.24, 628.74 21.24, 583.74 0, 583.74 0, 538.74 21.24, 538.74 21.24, 493.74 0, 493.74 0, 448.74 21.24, 448.74 21.24, 403.74 0, 403.74 0, 358.74 21.24, 358.74 21.24, 313.74 0, 313.74 0, 268.74 21.24, 268.74 21.24, 223.73999999999998 0, 223.73999999999998 0, 178.73999999999998 21.24, 178.73999999999998 21.24, 133.73999999999998 0, 133.73999999999998 0, 66.86999999999999 21.24, 66.86999999999999 "
       id="polygon22" />
  </g>
  <!-- Bottom-->
  <g
     transform="translate(784.9799999999999, 784.9799999999999) "
     id="g24"
     style="fill:none;stroke:#ff0000;fill-opacity:1;stroke-opacity:1;stroke-width:0.125;stroke-miterlimit:4;stroke-dasharray:none">
    <polygon
       style="stroke:#ff0000;fill:none;stroke-width:0.125;fill-opacity:1;stroke-opacity:1;stroke-miterlimit:4;stroke-dasharray:none"
       points="21.24, 21.24 66.86999999999999, 21.24 66.86999999999999, 0 133.73999999999998, 0 133.73999999999998, 21.24 178.73999999999998, 21.24 178.73999999999998, 0 223.73999999999998, 0 223.73999999999998, 21.24 268.74, 21.24 268.74, 0 313.74, 0 313.74, 21.24 358.74, 21.24 358.74, 0 403.74, 0 403.74, 21.24 448.74, 21.24 448.74, 0 493.74, 0 493.74, 21.24 538.74, 21.24 538.74, 0 583.74, 0 583.74, 21.24 628.74, 21.24 628.74, 0 695.6099999999999, 0 695.6099999999999, 21.24 741.2399999999999, 21.24 741.2399999999999, 66.86999999999999 762.4799999999999, 66.86999999999999 762.4799999999999, 133.73999999999998 741.2399999999999, 133.73999999999998 741.2399999999999, 178.73999999999998 762.4799999999999, 178.73999999999998 762.4799999999999, 223.73999999999998 741.2399999999999, 223.73999999999998 741.2399999999999, 268.74 762.4799999999999, 268.74 762.4799999999999, 313.74 741.2399999999999, 313.74 741.2399999999999, 358.74 762.4799999999999, 358.74 762.4799999999999, 403.74 741.2399999999999, 403.74 741.2399999999999, 448.74 762.4799999999999, 448.74 762.4799999999999, 493.74 741.2399999999999, 493.74 741.2399999999999, 538.74 762.4799999999999, 538.74 762.4799999999999, 583.74 741.2399999999999, 583.74 741.2399999999999, 628.74 762.4799999999999, 628.74 762.4799999999999, 695.6099999999999 741.2399999999999, 695.6099999999999 741.24, 741.2399999999999 695.6099999999999, 741.2399999999999 695.6099999999999, 762.4799999999999 628.74, 762.4799999999999 628.74, 741.2399999999999 583.74, 741.2399999999999 583.74, 762.4799999999999 538.74, 762.4799999999999 538.74, 741.2399999999999 493.74, 741.2399999999999 493.74, 762.4799999999999 448.74, 762.4799999999999 448.74, 741.2399999999999 403.74, 741.2399999999999 403.74, 762.4799999999999 358.74, 762.4799999999999 358.74, 741.2399999999999 313.74, 741.2399999999999 313.74, 762.4799999999999 268.74, 762.4799999999999 268.74, 741.2399999999999 223.73999999999998, 741.2399999999999 223.73999999999998, 762.4799999999999 178.73999999999998, 762.4799999999999 178.73999999999998, 741.2399999999999 133.73999999999998, 741.2399999999999 133.73999999999998, 762.4799999999999 66.86999999999999, 762.4799999999999 66.86999999999999, 741.2399999999999 21.24, 741.24 21.24, 695.6099999999999 0, 695.6099999999999 0, 628.74 21.24, 628.74 21.24, 583.74 0, 583.74 0, 538.74 21.24, 538.74 21.24, 493.74 0, 493.74 0, 448.74 21.24, 448.74 21.24, 403.74 0, 403.74 0, 358.74 21.24, 358.74 21.24, 313.74 0, 313.74 0, 268.74 21.24, 268.74 21.24, 223.73999999999998 0, 223.73999999999998 0, 178.73999999999998 21.24, 178.73999999999998 21.24, 133.73999999999998 0, 133.73999999999998 0, 66.86999999999999 21.24, 66.86999999999999 "
       id="polygon26" />
  </g>
  <g
     id="g4246"
     transform="translate(106.19998,1.91396)"
     style="fill:none;stroke:#ff0000;fill-opacity:1;stroke-opacity:1;stroke-width:0.125;stroke-miterlimit:4;stroke-dasharray:none">
    <rect
       y="91.571579"
       x="1572.5555"
       height="34.786804"
       width="499.88889"
       id="rect4257"
       style="fill:none;fill-opacity:1;stroke:#ff0000;stroke-width:0.125;stroke-miterlimit:4;stroke-dasharray:none;stroke-opacity:1" />
    <rect
       y="159.26479"
       x="1572.5481"
       height="34.801777"
       width="499.9039"
       id="rect4259"
       style="fill:none;fill-opacity:1;stroke:#ff0000;stroke-width:0.125;stroke-miterlimit:4;stroke-dasharray:none;stroke-opacity:1" />
    <rect
       y="226.97908"
       x="1572.5618"
       height="34.774529"
       width="499.87656"
       id="rect4261"
       style="fill:none;fill-opacity:1;stroke:#ff0000;stroke-width:0.125;stroke-miterlimit:4;stroke-dasharray:none;stroke-opacity:1" />
    <rect
       y="294.67578"
       x="1572.5577"
       height="34.78249"
       width="499.88455"
       id="rect4263"
       style="fill:none;fill-opacity:1;stroke:#ff0000;stroke-width:0.125;stroke-miterlimit:4;stroke-dasharray:none;stroke-opacity:1" />
  </g>
  <g
     id="g4306"
     transform="translate(106.19998,781.97701)"
     style="fill:none;stroke:#ff0000;fill-opacity:1;stroke-opacity:1;stroke-width:0.125;stroke-miterlimit:4;stroke-dasharray:none">
    <rect
       y="91.571579"
       x="1572.5555"
       height="34.786804"
       width="499.88889"
       id="rect4257-3"
       style="fill:none;fill-opacity:1;stroke:#ff0000;stroke-width:0.125;stroke-miterlimit:4;stroke-dasharray:none;stroke-opacity:1" />
    <rect
       y="159.26479"
       x="1572.5481"
       height="34.801777"
       width="499.9039"
       id="rect4259-1"
       style="fill:none;fill-opacity:1;stroke:#ff0000;stroke-width:0.125;stroke-miterlimit:4;stroke-dasharray:none;stroke-opacity:1" />
    <rect
       y="226.97908"
       x="1572.5618"
       height="34.774529"
       width="499.87656"
       id="rect4261-3"
       style="fill:none;fill-opacity:1;stroke:#ff0000;stroke-width:0.125;stroke-miterlimit:4;stroke-dasharray:none;stroke-opacity:1" />
    <rect
       y="294.67578"
       x="1572.5577"
       height="34.78249"
       width="499.88455"
       id="rect4263-0"
       style="fill:none;fill-opacity:1;stroke:#ff0000;stroke-width:0.125;stroke-miterlimit:4;stroke-dasharray:none;stroke-opacity:1" />
  </g>
</svg>
