<?xml version="1.0" encoding="UTF-8" standalone="no"?>
<svg
   xmlns:dc="http://purl.org/dc/elements/1.1/"
   xmlns:cc="http://creativecommons.org/ns#"
   xmlns:rdf="http://www.w3.org/1999/02/22-rdf-syntax-ns#"
   xmlns:svg="http://www.w3.org/2000/svg"
   xmlns="http://www.w3.org/2000/svg"
   xmlns:sodipodi="http://sodipodi.sourceforge.net/DTD/sodipodi-0.dtd"
   xmlns:inkscape="http://www.inkscape.org/namespaces/inkscape"
   version="1.1"
   width="24.5in"
   height="16.5in"
   viewBox=" 0 0 2205 1485"
   id="svg2"
   inkscape:version="0.91 r13725"
   sodipodi:docname="caseplans.svg">
  <metadata
     id="metadata32">
    <rdf:RDF>
      <cc:Work
         rdf:about="">
        <dc:format>image/svg+xml</dc:format>
        <dc:type
           rdf:resource="http://purl.org/dc/dcmitype/StillImage" />
      </cc:Work>
    </rdf:RDF>
  </metadata>
  <defs
     id="defs30" />
  <sodipodi:namedview
     pagecolor="#ffffff"
     bordercolor="#666666"
     borderopacity="1"
     objecttolerance="10"
     gridtolerance="10"
     guidetolerance="10"
     inkscape:pageopacity="0"
     inkscape:pageshadow="2"
     inkscape:window-width="1056"
     inkscape:window-height="665"
     id="namedview28"
     showgrid="false"
     inkscape:zoom="0.28117914"
     inkscape:cx="889.1129"
     inkscape:cy="1027.0161"
     inkscape:window-x="0"
     inkscape:window-y="0"
     inkscape:window-maximized="0"
     inkscape:current-layer="svg2" />
  <!-- Front-->
  <g
     transform="translate(22.5, 22.5) "
     id="g4"
     style="fill:none;stroke:#ff0000;stroke-opacity:1;stroke-width:0.125;stroke-miterlimit:4;stroke-dasharray:none">
    <polygon
       style="stroke:#ff0000;fill:none;stroke-width:0.125;stroke-opacity:1;stroke-miterlimit:4;stroke-dasharray:none"
       points="0, 0 56.25, 0 56.25, 21.24 112.5, 21.24 112.5, 0 157.5, 0 157.5, 21.24 202.5, 21.24 202.5, 0 247.5, 0 247.5, 21.24 292.5, 21.24 292.5, 0 337.5, 0 337.5, 21.24 382.5, 21.24 382.5, 0 427.5, 0 427.5, 21.24 472.5, 21.24 472.5, 0 517.5, 0 517.5, 21.24 562.5, 21.24 562.5, 0 607.5, 0 607.5, 21.24 663.75, 21.24 663.75, 0 720, 0 720, 56.25 698.76, 56.25 698.76, 112.5 720, 112.5 720, 157.5 698.76, 157.5 698.76, 202.5 720, 202.5 720, 247.5 698.76, 247.5 698.76, 292.5 720, 292.5 720, 337.5 698.76, 337.5 698.76, 382.5 720, 382.5 720, 427.5 698.76, 427.5 698.76, 472.5 720, 472.5 720, 517.5 698.76, 517.5 698.76, 562.5 720, 562.5 720, 607.5 698.76, 607.5 698.76, 663.75 720, 663.75 720, 720 663.75, 720 663.75, 698.76 607.5, 698.76 607.5, 720 562.5, 720 562.5, 698.76 517.5, 698.76 517.5, 720 472.5, 720 472.5, 698.76 427.5, 698.76 427.5, 720 382.5, 720 382.5, 698.76 337.5, 698.76 337.5, 720 292.5, 720 292.5, 698.76 247.5, 698.76 247.5, 720 202.5, 720 202.5, 698.76 157.5, 698.76 157.5, 720 112.5, 720 112.5, 698.76 56.25, 698.76 56.25, 720 0, 720 0, 663.75 21.24, 663.75 21.24, 607.5 0, 607.5 0, 562.5 21.24, 562.5 21.24, 517.5 0, 517.5 0, 472.5 21.24, 472.5 21.24, 427.5 0, 427.5 0, 382.5 21.24, 382.5 21.24, 337.5 0, 337.5 0, 292.5 21.24, 292.5 21.24, 247.5 0, 247.5 0, 202.5 21.24, 202.5 21.24, 157.5 0, 157.5 0, 112.5 21.24, 112.5 21.24, 56.25 0, 56.25 "
       id="polygon6" />
  </g>
  <!-- Back-->
  <g
     transform="translate(742.5, 22.5) "
     id="g8"
     style="fill:none;stroke:#ff0000;stroke-opacity:1;stroke-width:0.125;stroke-miterlimit:4;stroke-dasharray:none">
    <polygon
       style="stroke:#ff0000;fill:none;stroke-width:0.125;stroke-opacity:1;stroke-miterlimit:4;stroke-dasharray:none"
       points="0, 0 56.25, 0 56.25, 21.24 112.5, 21.24 112.5, 0 157.5, 0 157.5, 21.24 202.5, 21.24 202.5, 0 247.5, 0 247.5, 21.24 292.5, 21.24 292.5, 0 337.5, 0 337.5, 21.24 382.5, 21.24 382.5, 0 427.5, 0 427.5, 21.24 472.5, 21.24 472.5, 0 517.5, 0 517.5, 21.24 562.5, 21.24 562.5, 0 607.5, 0 607.5, 21.24 663.75, 21.24 663.75, 0 720, 0 720, 56.25 698.76, 56.25 698.76, 112.5 720, 112.5 720, 157.5 698.76, 157.5 698.76, 202.5 720, 202.5 720, 247.5 698.76, 247.5 698.76, 292.5 720, 292.5 720, 337.5 698.76, 337.5 698.76, 382.5 720, 382.5 720, 427.5 698.76, 427.5 698.76, 472.5 720, 472.5 720, 517.5 698.76, 517.5 698.76, 562.5 720, 562.5 720, 607.5 698.76, 607.5 698.76, 663.75 720, 663.75 720, 720 663.75, 720 663.75, 698.76 607.5, 698.76 607.5, 720 562.5, 720 562.5, 698.76 517.5, 698.76 517.5, 720 472.5, 720 472.5, 698.76 427.5, 698.76 427.5, 720 382.5, 720 382.5, 698.76 337.5, 698.76 337.5, 720 292.5, 720 292.5, 698.76 247.5, 698.76 247.5, 720 202.5, 720 202.5, 698.76 157.5, 698.76 157.5, 720 112.5, 720 112.5, 698.76 56.25, 698.76 56.25, 720 0, 720 0, 663.75 21.24, 663.75 21.24, 607.5 0, 607.5 0, 562.5 21.24, 562.5 21.24, 517.5 0, 517.5 0, 472.5 21.24, 472.5 21.24, 427.5 0, 427.5 0, 382.5 21.24, 382.5 21.24, 337.5 0, 337.5 0, 292.5 21.24, 292.5 21.24, 247.5 0, 247.5 0, 202.5 21.24, 202.5 21.24, 157.5 0, 157.5 0, 112.5 21.24, 112.5 21.24, 56.25 0, 56.25 "
       id="polygon10" />
  </g>
  <!-- Left-->
  <g
     transform="translate(1462.5, 22.5) "
     id="g12"
     style="fill:none;stroke:#ff0000;stroke-opacity:1;stroke-width:0.125;stroke-miterlimit:4;stroke-dasharray:none">
    <polygon
       style="stroke:#ff0000;fill:none;stroke-width:0.125;stroke-opacity:1;stroke-miterlimit:4;stroke-dasharray:none"
       points="21.24, 0 56.25, 0 56.25, 21.24 112.5, 21.24 112.5, 0 157.5, 0 157.5, 21.24 202.5, 21.24 202.5, 0 247.5, 0 247.5, 21.24 292.5, 21.24 292.5, 0 337.5, 0 337.5, 21.24 382.5, 21.24 382.5, 0 427.5, 0 427.5, 21.24 472.5, 21.24 472.5, 0 517.5, 0 517.5, 21.24 562.5, 21.24 562.5, 0 607.5, 0 607.5, 21.24 663.75, 21.24 663.75, 0 698.76, 0 698.76, 56.25 720, 56.25 720, 112.5 698.76, 112.5 698.76, 157.5 720, 157.5 720, 202.5 698.76, 202.5 698.76, 247.5 720, 247.5 720, 292.5 698.76, 292.5 698.76, 337.5 720, 337.5 720, 382.5 698.76, 382.5 698.76, 427.5 720, 427.5 720, 472.5 698.76, 472.5 698.76, 517.5 720, 517.5 720, 562.5 698.76, 562.5 698.76, 607.5 720, 607.5 720, 663.75 698.76, 663.75 698.76, 720 663.75, 720 663.75, 698.76 607.5, 698.76 607.5, 720 562.5, 720 562.5, 698.76 517.5, 698.76 517.5, 720 472.5, 720 472.5, 698.76 427.5, 698.76 427.5, 720 382.5, 720 382.5, 698.76 337.5, 698.76 337.5, 720 292.5, 720 292.5, 698.76 247.5, 698.76 247.5, 720 202.5, 720 202.5, 698.76 157.5, 698.76 157.5, 720 112.5, 720 112.5, 698.76 56.25, 698.76 56.25, 720 21.24, 720 21.24, 663.75 0, 663.75 0, 607.5 21.24, 607.5 21.24, 562.5 0, 562.5 0, 517.5 21.24, 517.5 21.24, 472.5 0, 472.5 0, 427.5 21.24, 427.5 21.24, 382.5 0, 382.5 0, 337.5 21.24, 337.5 21.24, 292.5 0, 292.5 0, 247.5 21.24, 247.5 21.24, 202.5 0, 202.5 0, 157.5 21.24, 157.5 21.24, 112.5 0, 112.5 0, 56.25 21.24, 56.25 "
       id="polygon14" />
  </g>
  <!-- Right-->
  <g
     transform="translate(1462.5, 742.5) "
     id="g16"
     style="fill:none;stroke:#ff0000;stroke-opacity:1;stroke-width:0.125;stroke-miterlimit:4;stroke-dasharray:none">
    <polygon
       style="stroke:#ff0000;fill:none;stroke-width:0.125;stroke-opacity:1;stroke-miterlimit:4;stroke-dasharray:none"
       points="21.24, 0 56.25, 0 56.25, 21.24 112.5, 21.24 112.5, 0 157.5, 0 157.5, 21.24 202.5, 21.24 202.5, 0 247.5, 0 247.5, 21.24 292.5, 21.24 292.5, 0 337.5, 0 337.5, 21.24 382.5, 21.24 382.5, 0 427.5, 0 427.5, 21.24 472.5, 21.24 472.5, 0 517.5, 0 517.5, 21.24 562.5, 21.24 562.5, 0 607.5, 0 607.5, 21.24 663.75, 21.24 663.75, 0 698.76, 0 698.76, 56.25 720, 56.25 720, 112.5 698.76, 112.5 698.76, 157.5 720, 157.5 720, 202.5 698.76, 202.5 698.76, 247.5 720, 247.5 720, 292.5 698.76, 292.5 698.76, 337.5 720, 337.5 720, 382.5 698.76, 382.5 698.76, 427.5 720, 427.5 720, 472.5 698.76, 472.5 698.76, 517.5 720, 517.5 720, 562.5 698.76, 562.5 698.76, 607.5 720, 607.5 720, 663.75 698.76, 663.75 698.76, 720 663.75, 720 663.75, 698.76 607.5, 698.76 607.5, 720 562.5, 720 562.5, 698.76 517.5, 698.76 517.5, 720 472.5, 720 472.5, 698.76 427.5, 698.76 427.5, 720 382.5, 720 382.5, 698.76 337.5, 698.76 337.5, 720 292.5, 720 292.5, 698.76 247.5, 698.76 247.5, 720 202.5, 720 202.5, 698.76 157.5, 698.76 157.5, 720 112.5, 720 112.5, 698.76 56.25, 698.76 56.25, 720 21.24, 720 21.24, 663.75 0, 663.75 0, 607.5 21.24, 607.5 21.24, 562.5 0, 562.5 0, 517.5 21.24, 517.5 21.24, 472.5 0, 472.5 0, 427.5 21.24, 427.5 21.24, 382.5 0, 382.5 0, 337.5 21.24, 337.5 21.24, 292.5 0, 292.5 0, 247.5 21.24, 247.5 21.24, 202.5 0, 202.5 0, 157.5 21.24, 157.5 21.24, 112.5 0, 112.5 0, 56.25 21.24, 56.25 "
       id="polygon18" />
  </g>
  <!-- Top-->
  <g
     transform="translate(22.5, 742.5) "
     id="g20"
     style="fill:none;stroke:#ff0000;stroke-opacity:1;stroke-width:0.125;stroke-miterlimit:4;stroke-dasharray:none">
    <polygon
       style="stroke:#ff0000;fill:none;stroke-width:0.125;stroke-opacity:1;stroke-miterlimit:4;stroke-dasharray:none"
       points="21.24, 21.24 56.25, 21.24 56.25, 0 112.5, 0 112.5, 21.24 157.5, 21.24 157.5, 0 202.5, 0 202.5, 21.24 247.5, 21.24 247.5, 0 292.5, 0 292.5, 21.24 337.5, 21.24 337.5, 0 382.5, 0 382.5, 21.24 427.5, 21.24 427.5, 0 472.5, 0 472.5, 21.24 517.5, 21.24 517.5, 0 562.5, 0 562.5, 21.24 607.5, 21.24 607.5, 0 663.75, 0 663.75, 21.24 698.76, 21.24 698.76, 56.25 720, 56.25 720, 112.5 698.76, 112.5 698.76, 157.5 720, 157.5 720, 202.5 698.76, 202.5 698.76, 247.5 720, 247.5 720, 292.5 698.76, 292.5 698.76, 337.5 720, 337.5 720, 382.5 698.76, 382.5 698.76, 427.5 720, 427.5 720, 472.5 698.76, 472.5 698.76, 517.5 720, 517.5 720, 562.5 698.76, 562.5 698.76, 607.5 720, 607.5 720, 663.75 698.76, 663.75 698.76, 698.76 663.75, 698.76 663.75, 720 607.5, 720 607.5, 698.76 562.5, 698.76 562.5, 720 517.5, 720 517.5, 698.76 472.5, 698.76 472.5, 720 427.5, 720 427.5, 698.76 382.5, 698.76 382.5, 720 337.5, 720 337.5, 698.76 292.5, 698.76 292.5, 720 247.5, 720 247.5, 698.76 202.5, 698.76 202.5, 720 157.5, 720 157.5, 698.76 112.5, 698.76 112.5, 720 56.25, 720 56.25, 698.76 21.24, 698.76 21.24, 663.75 0, 663.75 0, 607.5 21.24, 607.5 21.24, 562.5 0, 562.5 0, 517.5 21.24, 517.5 21.24, 472.5 0, 472.5 0, 427.5 21.24, 427.5 21.24, 382.5 0, 382.5 0, 337.5 21.24, 337.5 21.24, 292.5 0, 292.5 0, 247.5 21.24, 247.5 21.24, 202.5 0, 202.5 0, 157.5 21.24, 157.5 21.24, 112.5 0, 112.5 0, 56.25 21.24, 56.25 "
       id="polygon22" />
  </g>
  <!-- Bottom-->
  <g
     transform="translate(742.5, 742.5) "
     id="g24"
     style="fill:none;stroke:#ff0000;stroke-opacity:1;stroke-width:0.125;stroke-miterlimit:4;stroke-dasharray:none">
    <polygon
       style="stroke:#ff0000;fill:none;stroke-width:0.125;stroke-opacity:1;stroke-miterlimit:4;stroke-dasharray:none"
       points="21.24, 21.24 56.25, 21.24 56.25, 0 112.5, 0 112.5, 21.24 157.5, 21.24 157.5, 0 202.5, 0 202.5, 21.24 247.5, 21.24 247.5, 0 292.5, 0 292.5, 21.24 337.5, 21.24 337.5, 0 382.5, 0 382.5, 21.24 427.5, 21.24 427.5, 0 472.5, 0 472.5, 21.24 517.5, 21.24 517.5, 0 562.5, 0 562.5, 21.24 607.5, 21.24 607.5, 0 663.75, 0 663.75, 21.24 698.76, 21.24 698.76, 56.25 720, 56.25 720, 112.5 698.76, 112.5 698.76, 157.5 720, 157.5 720, 202.5 698.76, 202.5 698.76, 247.5 720, 247.5 720, 292.5 698.76, 292.5 698.76, 337.5 720, 337.5 720, 382.5 698.76, 382.5 698.76, 427.5 720, 427.5 720, 472.5 698.76, 472.5 698.76, 517.5 720, 517.5 720, 562.5 698.76, 562.5 698.76, 607.5 720, 607.5 720, 663.75 698.76, 663.75 698.76, 698.76 663.75, 698.76 663.75, 720 607.5, 720 607.5, 698.76 562.5, 698.76 562.5, 720 517.5, 720 517.5, 698.76 472.5, 698.76 472.5, 720 427.5, 720 427.5, 698.76 382.5, 698.76 382.5, 720 337.5, 720 337.5, 698.76 292.5, 698.76 292.5, 720 247.5, 720 247.5, 698.76 202.5, 698.76 202.5, 720 157.5, 720 157.5, 698.76 112.5, 698.76 112.5, 720 56.25, 720 56.25, 698.76 21.24, 698.76 21.24, 663.75 0, 663.75 0, 607.5 21.24, 607.5 21.24, 562.5 0, 562.5 0, 517.5 21.24, 517.5 21.24, 472.5 0, 472.5 0, 427.5 21.24, 427.5 21.24, 382.5 0, 382.5 0, 337.5 21.24, 337.5 21.24, 292.5 0, 292.5 0, 247.5 21.24, 247.5 21.24, 202.5 0, 202.5 0, 157.5 21.24, 157.5 21.24, 112.5 0, 112.5 0, 56.25 21.24, 56.25 "
       id="polygon26" />
  </g>
  <rect
     style="fill:none;fill-opacity:1;stroke:#ff0000;stroke-width:0.125;stroke-miterlimit:4;stroke-dasharray:none;stroke-opacity:1"
     id="rect4160"
     width="106.29921"
     height="106.29921"
     x="103.1371"
     y="147.7742" />
  <rect
     style="fill:none;fill-opacity:1;stroke:#ff0000;stroke-width:0.125;stroke-miterlimit:4;stroke-dasharray:none;stroke-opacity:1"
     id="rect4164"
     width="120.47244"
     height="77.952759"
     x="1539.9436"
     y="247.35484" />
  <rect
     style="fill:none;fill-opacity:1;stroke:#ff0000;stroke-width:0.125;stroke-miterlimit:4;stroke-dasharray:none;stroke-opacity:1"
     id="rect4166"
     width="450.78021"
     height="201.82863"
     x="1659.0847"
     y="250.91129" />
  <text
     xml:space="preserve"
     style="font-style:normal;font-weight:normal;font-size:40px;line-height:125%;font-family:sans-serif;letter-spacing:0px;word-spacing:0px;fill:#000000;fill-opacity:1;stroke:none;stroke-width:1px;stroke-linecap:butt;stroke-linejoin:miter;stroke-opacity:1"
     x="110.25"
     y="670.57257"
     id="text4168"
     sodipodi:linespacing="125%"><tspan
       sodipodi:role="line"
       id="tspan4170"
       x="110.25"
       y="670.57257">1</tspan></text>
  <text
     xml:space="preserve"
     style="font-style:normal;font-weight:normal;font-size:40px;line-height:125%;font-family:sans-serif;letter-spacing:0px;word-spacing:0px;fill:#000000;fill-opacity:1;stroke:none;stroke-width:1px;stroke-linecap:butt;stroke-linejoin:miter;stroke-opacity:1"
     x="108.47177"
     y="1404.9799"
     id="text4172"
     sodipodi:linespacing="125%"><tspan
       sodipodi:role="line"
       id="tspan4174"
       x="108.47177"
       y="1404.9799">2</tspan></text>
  <text
     xml:space="preserve"
     style="font-style:normal;font-weight:normal;font-size:40px;line-height:125%;font-family:sans-serif;letter-spacing:0px;word-spacing:0px;fill:#000000;fill-opacity:1;stroke:none;stroke-width:1px;stroke-linecap:butt;stroke-linejoin:miter;stroke-opacity:1"
     x="798.4234"
     y="1394.3105"
     id="text4176"
     sodipodi:linespacing="125%"><tspan
       sodipodi:role="line"
       id="tspan4178"
       x="798.4234"
       y="1394.3105">3</tspan></text>
  <text
     xml:space="preserve"
     style="font-style:normal;font-weight:normal;font-size:40px;line-height:125%;font-family:sans-serif;letter-spacing:0px;word-spacing:0px;fill:#000000;fill-opacity:1;stroke:none;stroke-width:1px;stroke-linecap:butt;stroke-linejoin:miter;stroke-opacity:1"
     x="814.42743"
     y="663.45966"
     id="text4180"
     sodipodi:linespacing="125%"><tspan
       sodipodi:role="line"
       id="tspan4182"
       x="814.42743"
       y="663.45966">4</tspan></text>
  <text
     xml:space="preserve"
     style="font-style:normal;font-weight:normal;font-size:40px;line-height:125%;font-family:sans-serif;letter-spacing:0px;word-spacing:0px;fill:#000000;fill-opacity:1;stroke:none;stroke-width:1px;stroke-linecap:butt;stroke-linejoin:miter;stroke-opacity:1"
     x="1563.0605"
     y="665.23792"
     id="text4184"
     sodipodi:linespacing="125%"><tspan
       sodipodi:role="line"
       id="tspan4186"
       x="1563.0605"
       y="665.23792">5</tspan></text>
  <text
     xml:space="preserve"
     style="font-style:normal;font-weight:normal;font-size:40px;line-height:125%;font-family:sans-serif;letter-spacing:0px;word-spacing:0px;fill:#000000;fill-opacity:1;stroke:none;stroke-width:1px;stroke-linecap:butt;stroke-linejoin:miter;stroke-opacity:1"
     x="1525.7177"
     y="1387.1976"
     id="text4188"
     sodipodi:linespacing="125%"><tspan
       sodipodi:role="line"
       id="tspan4190"
       x="1525.7177"
       y="1387.1976">6</tspan></text>
</svg>
