<svg xmlns="http://www.w3.org/2000/svg" version="1.1" width="19.915999999999997in" height="13.443999999999999in" viewBox = " 0 0 1792.4399999999996 1209.9599999999998" >
<!-- Front--> 
<g transform="translate(22.5, 22.5) " > 
<polygon style="stroke:#000000; fill:none; stroke-width:0.9" points="0, 0 54.49499999999999, 0 54.49499999999999, 21.24 108.98999999999998, 21.24 108.98999999999998, 0 149.48999999999998, 0 149.48999999999998, 21.24 189.98999999999998, 21.24 189.98999999999998, 0 230.48999999999998, 0 230.48999999999998, 21.24 270.99, 21.24 270.99, 0 311.49, 0 311.49, 21.24 351.99, 21.24 351.99, 0 392.49, 0 392.49, 21.24 432.99, 21.24 432.99, 0 473.49, 0 473.49, 21.24 527.9849999999999, 21.24 527.9849999999999, 0 582.4799999999999, 0 582.4799999999999, 54.49499999999999 561.2399999999999, 54.49499999999999 561.2399999999999, 108.98999999999998 582.4799999999999, 108.98999999999998 582.4799999999999, 149.48999999999998 561.2399999999999, 149.48999999999998 561.2399999999999, 189.98999999999998 582.4799999999999, 189.98999999999998 582.4799999999999, 230.48999999999998 561.2399999999999, 230.48999999999998 561.2399999999999, 270.99 582.4799999999999, 270.99 582.4799999999999, 311.49 561.2399999999999, 311.49 561.2399999999999, 351.99 582.4799999999999, 351.99 582.4799999999999, 392.49 561.2399999999999, 392.49 561.2399999999999, 432.99 582.4799999999999, 432.99 582.4799999999999, 473.49 561.2399999999999, 473.49 561.2399999999999, 527.9849999999999 582.4799999999999, 527.9849999999999 582.48, 582.4799999999999 527.9849999999999, 582.4799999999999 527.9849999999999, 561.2399999999999 473.49, 561.2399999999999 473.49, 582.4799999999999 432.99, 582.4799999999999 432.99, 561.2399999999999 392.49, 561.2399999999999 392.49, 582.4799999999999 351.99, 582.4799999999999 351.99, 561.2399999999999 311.49, 561.2399999999999 311.49, 582.4799999999999 270.99, 582.4799999999999 270.99, 561.2399999999999 230.48999999999998, 561.2399999999999 230.48999999999998, 582.4799999999999 189.98999999999998, 582.4799999999999 189.98999999999998, 561.2399999999999 149.48999999999998, 561.2399999999999 149.48999999999998, 582.4799999999999 108.98999999999998, 582.4799999999999 108.98999999999998, 561.2399999999999 54.49499999999999, 561.2399999999999 54.49499999999999, 582.4799999999999 0, 582.48 0, 527.9849999999999 21.24, 527.9849999999999 21.24, 473.49 0, 473.49 0, 432.99 21.24, 432.99 21.24, 392.49 0, 392.49 0, 351.99 21.24, 351.99 21.24, 311.49 0, 311.49 0, 270.99 21.24, 270.99 21.24, 230.48999999999998 0, 230.48999999999998 0, 189.98999999999998 21.24, 189.98999999999998 21.24, 149.48999999999998 0, 149.48999999999998 0, 108.98999999999998 21.24, 108.98999999999998 21.24, 54.49499999999999 0, 54.49499999999999 "/> 
</g>
<!-- Back--> 
<g transform="translate(604.9799999999999, 22.5) " > 
<polygon style="stroke:#000000; fill:none; stroke-width:0.9" points="0, 0 54.49499999999999, 0 54.49499999999999, 21.24 108.98999999999998, 21.24 108.98999999999998, 0 149.48999999999998, 0 149.48999999999998, 21.24 189.98999999999998, 21.24 189.98999999999998, 0 230.48999999999998, 0 230.48999999999998, 21.24 270.99, 21.24 270.99, 0 311.49, 0 311.49, 21.24 351.99, 21.24 351.99, 0 392.49, 0 392.49, 21.24 432.99, 21.24 432.99, 0 473.49, 0 473.49, 21.24 527.9849999999999, 21.24 527.9849999999999, 0 582.4799999999999, 0 582.4799999999999, 54.49499999999999 561.2399999999999, 54.49499999999999 561.2399999999999, 108.98999999999998 582.4799999999999, 108.98999999999998 582.4799999999999, 149.48999999999998 561.2399999999999, 149.48999999999998 561.2399999999999, 189.98999999999998 582.4799999999999, 189.98999999999998 582.4799999999999, 230.48999999999998 561.2399999999999, 230.48999999999998 561.2399999999999, 270.99 582.4799999999999, 270.99 582.4799999999999, 311.49 561.2399999999999, 311.49 561.2399999999999, 351.99 582.4799999999999, 351.99 582.4799999999999, 392.49 561.2399999999999, 392.49 561.2399999999999, 432.99 582.4799999999999, 432.99 582.4799999999999, 473.49 561.2399999999999, 473.49 561.2399999999999, 527.9849999999999 582.4799999999999, 527.9849999999999 582.48, 582.4799999999999 527.9849999999999, 582.4799999999999 527.9849999999999, 561.2399999999999 473.49, 561.2399999999999 473.49, 582.4799999999999 432.99, 582.4799999999999 432.99, 561.2399999999999 392.49, 561.2399999999999 392.49, 582.4799999999999 351.99, 582.4799999999999 351.99, 561.2399999999999 311.49, 561.2399999999999 311.49, 582.4799999999999 270.99, 582.4799999999999 270.99, 561.2399999999999 230.48999999999998, 561.2399999999999 230.48999999999998, 582.4799999999999 189.98999999999998, 582.4799999999999 189.98999999999998, 561.2399999999999 149.48999999999998, 561.2399999999999 149.48999999999998, 582.4799999999999 108.98999999999998, 582.4799999999999 108.98999999999998, 561.2399999999999 54.49499999999999, 561.2399999999999 54.49499999999999, 582.4799999999999 0, 582.48 0, 527.9849999999999 21.24, 527.9849999999999 21.24, 473.49 0, 473.49 0, 432.99 21.24, 432.99 21.24, 392.49 0, 392.49 0, 351.99 21.24, 351.99 21.24, 311.49 0, 311.49 0, 270.99 21.24, 270.99 21.24, 230.48999999999998 0, 230.48999999999998 0, 189.98999999999998 21.24, 189.98999999999998 21.24, 149.48999999999998 0, 149.48999999999998 0, 108.98999999999998 21.24, 108.98999999999998 21.24, 54.49499999999999 0, 54.49499999999999 "/> 
</g>
<!-- Left--> 
<g transform="translate(1187.4599999999998, 22.5) " > 
<polygon style="stroke:#000000; fill:none; stroke-width:0.9" points="21.24, 0 54.49499999999999, 0 54.49499999999999, 21.24 108.98999999999998, 21.24 108.98999999999998, 0 149.48999999999998, 0 149.48999999999998, 21.24 189.98999999999998, 21.24 189.98999999999998, 0 230.48999999999998, 0 230.48999999999998, 21.24 270.99, 21.24 270.99, 0 311.49, 0 311.49, 21.24 351.99, 21.24 351.99, 0 392.49, 0 392.49, 21.24 432.99, 21.24 432.99, 0 473.49, 0 473.49, 21.24 527.9849999999999, 21.24 527.9849999999999, 0 561.2399999999999, 0 561.2399999999999, 54.49499999999999 582.4799999999999, 54.49499999999999 582.4799999999999, 108.98999999999998 561.2399999999999, 108.98999999999998 561.2399999999999, 149.48999999999998 582.4799999999999, 149.48999999999998 582.4799999999999, 189.98999999999998 561.2399999999999, 189.98999999999998 561.2399999999999, 230.48999999999998 582.4799999999999, 230.48999999999998 582.4799999999999, 270.99 561.2399999999999, 270.99 561.2399999999999, 311.49 582.4799999999999, 311.49 582.4799999999999, 351.99 561.2399999999999, 351.99 561.2399999999999, 392.49 582.4799999999999, 392.49 582.4799999999999, 432.99 561.2399999999999, 432.99 561.2399999999999, 473.49 582.4799999999999, 473.49 582.4799999999999, 527.9849999999999 561.2399999999999, 527.9849999999999 561.24, 582.4799999999999 527.9849999999999, 582.4799999999999 527.9849999999999, 561.2399999999999 473.49, 561.2399999999999 473.49, 582.4799999999999 432.99, 582.4799999999999 432.99, 561.2399999999999 392.49, 561.2399999999999 392.49, 582.4799999999999 351.99, 582.4799999999999 351.99, 561.2399999999999 311.49, 561.2399999999999 311.49, 582.4799999999999 270.99, 582.4799999999999 270.99, 561.2399999999999 230.48999999999998, 561.2399999999999 230.48999999999998, 582.4799999999999 189.98999999999998, 582.4799999999999 189.98999999999998, 561.2399999999999 149.48999999999998, 561.2399999999999 149.48999999999998, 582.4799999999999 108.98999999999998, 582.4799999999999 108.98999999999998, 561.2399999999999 54.49499999999999, 561.2399999999999 54.49499999999999, 582.4799999999999 21.24, 582.48 21.24, 527.9849999999999 0, 527.9849999999999 0, 473.49 21.24, 473.49 21.24, 432.99 0, 432.99 0, 392.49 21.24, 392.49 21.24, 351.99 0, 351.99 0, 311.49 21.24, 311.49 21.24, 270.99 0, 270.99 0, 230.48999999999998 21.24, 230.48999999999998 21.24, 189.98999999999998 0, 189.98999999999998 0, 149.48999999999998 21.24, 149.48999999999998 21.24, 108.98999999999998 0, 108.98999999999998 0, 54.49499999999999 21.24, 54.49499999999999 "/> 
</g>
<!-- Right--> 
<g transform="translate(1187.4599999999998, 604.9799999999999) " > 
<polygon style="stroke:#000000; fill:none; stroke-width:0.9" points="21.24, 0 54.49499999999999, 0 54.49499999999999, 21.24 108.98999999999998, 21.24 108.98999999999998, 0 149.48999999999998, 0 149.48999999999998, 21.24 189.98999999999998, 21.24 189.98999999999998, 0 230.48999999999998, 0 230.48999999999998, 21.24 270.99, 21.24 270.99, 0 311.49, 0 311.49, 21.24 351.99, 21.24 351.99, 0 392.49, 0 392.49, 21.24 432.99, 21.24 432.99, 0 473.49, 0 473.49, 21.24 527.9849999999999, 21.24 527.9849999999999, 0 561.2399999999999, 0 561.2399999999999, 54.49499999999999 582.4799999999999, 54.49499999999999 582.4799999999999, 108.98999999999998 561.2399999999999, 108.98999999999998 561.2399999999999, 149.48999999999998 582.4799999999999, 149.48999999999998 582.4799999999999, 189.98999999999998 561.2399999999999, 189.98999999999998 561.2399999999999, 230.48999999999998 582.4799999999999, 230.48999999999998 582.4799999999999, 270.99 561.2399999999999, 270.99 561.2399999999999, 311.49 582.4799999999999, 311.49 582.4799999999999, 351.99 561.2399999999999, 351.99 561.2399999999999, 392.49 582.4799999999999, 392.49 582.4799999999999, 432.99 561.2399999999999, 432.99 561.2399999999999, 473.49 582.4799999999999, 473.49 582.4799999999999, 527.9849999999999 561.2399999999999, 527.9849999999999 561.24, 582.4799999999999 527.9849999999999, 582.4799999999999 527.9849999999999, 561.2399999999999 473.49, 561.2399999999999 473.49, 582.4799999999999 432.99, 582.4799999999999 432.99, 561.2399999999999 392.49, 561.2399999999999 392.49, 582.4799999999999 351.99, 582.4799999999999 351.99, 561.2399999999999 311.49, 561.2399999999999 311.49, 582.4799999999999 270.99, 582.4799999999999 270.99, 561.2399999999999 230.48999999999998, 561.2399999999999 230.48999999999998, 582.4799999999999 189.98999999999998, 582.4799999999999 189.98999999999998, 561.2399999999999 149.48999999999998, 561.2399999999999 149.48999999999998, 582.4799999999999 108.98999999999998, 582.4799999999999 108.98999999999998, 561.2399999999999 54.49499999999999, 561.2399999999999 54.49499999999999, 582.4799999999999 21.24, 582.48 21.24, 527.9849999999999 0, 527.9849999999999 0, 473.49 21.24, 473.49 21.24, 432.99 0, 432.99 0, 392.49 21.24, 392.49 21.24, 351.99 0, 351.99 0, 311.49 21.24, 311.49 21.24, 270.99 0, 270.99 0, 230.48999999999998 21.24, 230.48999999999998 21.24, 189.98999999999998 0, 189.98999999999998 0, 149.48999999999998 21.24, 149.48999999999998 21.24, 108.98999999999998 0, 108.98999999999998 0, 54.49499999999999 21.24, 54.49499999999999 "/> 
</g>
<!-- Top--> 
<g transform="translate(22.5, 604.9799999999999) " > 
<polygon style="stroke:#000000; fill:none; stroke-width:0.9" points="21.24, 21.24 54.49499999999999, 21.24 54.49499999999999, 0 108.98999999999998, 0 108.98999999999998, 21.24 149.48999999999998, 21.24 149.48999999999998, 0 189.98999999999998, 0 189.98999999999998, 21.24 230.48999999999998, 21.24 230.48999999999998, 0 270.99, 0 270.99, 21.24 311.49, 21.24 311.49, 0 351.99, 0 351.99, 21.24 392.49, 21.24 392.49, 0 432.99, 0 432.99, 21.24 473.49, 21.24 473.49, 0 527.9849999999999, 0 527.9849999999999, 21.24 561.2399999999999, 21.24 561.2399999999999, 54.49499999999999 582.4799999999999, 54.49499999999999 582.4799999999999, 108.98999999999998 561.2399999999999, 108.98999999999998 561.2399999999999, 149.48999999999998 582.4799999999999, 149.48999999999998 582.4799999999999, 189.98999999999998 561.2399999999999, 189.98999999999998 561.2399999999999, 230.48999999999998 582.4799999999999, 230.48999999999998 582.4799999999999, 270.99 561.2399999999999, 270.99 561.2399999999999, 311.49 582.4799999999999, 311.49 582.4799999999999, 351.99 561.2399999999999, 351.99 561.2399999999999, 392.49 582.4799999999999, 392.49 582.4799999999999, 432.99 561.2399999999999, 432.99 561.2399999999999, 473.49 582.4799999999999, 473.49 582.4799999999999, 527.9849999999999 561.2399999999999, 527.9849999999999 561.24, 561.2399999999999 527.9849999999999, 561.2399999999999 527.9849999999999, 582.4799999999999 473.49, 582.4799999999999 473.49, 561.2399999999999 432.99, 561.2399999999999 432.99, 582.4799999999999 392.49, 582.4799999999999 392.49, 561.2399999999999 351.99, 561.2399999999999 351.99, 582.4799999999999 311.49, 582.4799999999999 311.49, 561.2399999999999 270.99, 561.2399999999999 270.99, 582.4799999999999 230.48999999999998, 582.4799999999999 230.48999999999998, 561.2399999999999 189.98999999999998, 561.2399999999999 189.98999999999998, 582.4799999999999 149.48999999999998, 582.4799999999999 149.48999999999998, 561.2399999999999 108.98999999999998, 561.2399999999999 108.98999999999998, 582.4799999999999 54.49499999999999, 582.4799999999999 54.49499999999999, 561.2399999999999 21.24, 561.24 21.24, 527.9849999999999 0, 527.9849999999999 0, 473.49 21.24, 473.49 21.24, 432.99 0, 432.99 0, 392.49 21.24, 392.49 21.24, 351.99 0, 351.99 0, 311.49 21.24, 311.49 21.24, 270.99 0, 270.99 0, 230.48999999999998 21.24, 230.48999999999998 21.24, 189.98999999999998 0, 189.98999999999998 0, 149.48999999999998 21.24, 149.48999999999998 21.24, 108.98999999999998 0, 108.98999999999998 0, 54.49499999999999 21.24, 54.49499999999999 "/> 
</g>
<!-- Bottom--> 
<g transform="translate(604.9799999999999, 604.9799999999999) " > 
<polygon style="stroke:#000000; fill:none; stroke-width:0.9" points="21.24, 21.24 54.49499999999999, 21.24 54.49499999999999, 0 108.98999999999998, 0 108.98999999999998, 21.24 149.48999999999998, 21.24 149.48999999999998, 0 189.98999999999998, 0 189.98999999999998, 21.24 230.48999999999998, 21.24 230.48999999999998, 0 270.99, 0 270.99, 21.24 311.49, 21.24 311.49, 0 351.99, 0 351.99, 21.24 392.49, 21.24 392.49, 0 432.99, 0 432.99, 21.24 473.49, 21.24 473.49, 0 527.9849999999999, 0 527.9849999999999, 21.24 561.2399999999999, 21.24 561.2399999999999, 54.49499999999999 582.4799999999999, 54.49499999999999 582.4799999999999, 108.98999999999998 561.2399999999999, 108.98999999999998 561.2399999999999, 149.48999999999998 582.4799999999999, 149.48999999999998 582.4799999999999, 189.98999999999998 561.2399999999999, 189.98999999999998 561.2399999999999, 230.48999999999998 582.4799999999999, 230.48999999999998 582.4799999999999, 270.99 561.2399999999999, 270.99 561.2399999999999, 311.49 582.4799999999999, 311.49 582.4799999999999, 351.99 561.2399999999999, 351.99 561.2399999999999, 392.49 582.4799999999999, 392.49 582.4799999999999, 432.99 561.2399999999999, 432.99 561.2399999999999, 473.49 582.4799999999999, 473.49 582.4799999999999, 527.9849999999999 561.2399999999999, 527.9849999999999 561.24, 561.2399999999999 527.9849999999999, 561.2399999999999 527.9849999999999, 582.4799999999999 473.49, 582.4799999999999 473.49, 561.2399999999999 432.99, 561.2399999999999 432.99, 582.4799999999999 392.49, 582.4799999999999 392.49, 561.2399999999999 351.99, 561.2399999999999 351.99, 582.4799999999999 311.49, 582.4799999999999 311.49, 561.2399999999999 270.99, 561.2399999999999 270.99, 582.4799999999999 230.48999999999998, 582.4799999999999 230.48999999999998, 561.2399999999999 189.98999999999998, 561.2399999999999 189.98999999999998, 582.4799999999999 149.48999999999998, 582.4799999999999 149.48999999999998, 561.2399999999999 108.98999999999998, 561.2399999999999 108.98999999999998, 582.4799999999999 54.49499999999999, 582.4799999999999 54.49499999999999, 561.2399999999999 21.24, 561.24 21.24, 527.9849999999999 0, 527.9849999999999 0, 473.49 21.24, 473.49 21.24, 432.99 0, 432.99 0, 392.49 21.24, 392.49 21.24, 351.99 0, 351.99 0, 311.49 21.24, 311.49 21.24, 270.99 0, 270.99 0, 230.48999999999998 21.24, 230.48999999999998 21.24, 189.98999999999998 0, 189.98999999999998 0, 149.48999999999998 21.24, 149.48999999999998 21.24, 108.98999999999998 0, 108.98999999999998 0, 54.49499999999999 21.24, 54.49499999999999 "/> 
</g></svg>